<?xml version="1.0" encoding="UTF-8"?><svg id="Layer_2" xmlns="http://www.w3.org/2000/svg" viewBox="0 0 120.23 97.38"><defs><style>.cls-1,.cls-2{fill:#eb6336;stroke:#eb6336;stroke-miterlimit:10;stroke-width:4px;}.cls-3{opacity:1;}.cls-2{opacity:.51;}.cls-2,.cls-4{isolation:isolate;}.cls-5{fill:#fff;stroke-width:0px;}</style></defs><g id="Layer_1-2"><g id="info_cloud"><g id="Scroll_to_top_button"><g id="Brandmark_KC" class="cls-3"><g id="Gruppe_208"><path id="Pfad_43" class="cls-2" d="m118.23,66.32c0,16.05-13.01,29.05-29.06,29.05H31.06c-16.05,0-29.05-13.01-29.05-29.05s13.01-29.05,29.05-29.05h.37c.09,0,.17,0,.26,0-3.32-15.7,6.71-31.12,22.41-34.44,15.7-3.32,31.12,6.71,34.44,22.41.84,3.96.84,8.06,0,12.03.09,0,.17,0,.26,0h.37c16.05,0,29.05,13.01,29.05,29.06Z"/><path id="Pfad_44" class="cls-1" d="m118.05,66.13c0,16.05-13.01,29.05-29.05,29.05H30.88c-16.05-.09-28.98-13.18-28.88-29.22.09-15.91,12.97-28.79,28.88-28.88h.37c.09,0,.17,0,.26,0-3.32-15.7,6.71-31.12,22.4-34.44,15.7-3.32,31.12,6.71,34.44,22.4.84,3.97.84,8.07,0,12.04.09,0,.17,0,.26,0h.37c16.05,0,29.05,13.01,29.06,29.06Z"/></g></g></g><g id="projects_button" class="cls-4"><g class="cls-4"><path class="cls-5" d="m55.17,28.42c0-1.36.45-2.5,1.34-3.39.9-.9,1.98-1.34,3.26-1.34,1.36,0,2.5.45,3.39,1.34.9.9,1.34,2.03,1.34,3.39,0,1.28-.45,2.37-1.34,3.26-.9.9-2.03,1.34-3.39,1.34-1.28,0-2.37-.45-3.26-1.34-.9-.9-1.34-1.98-1.34-3.26Zm.83,10.82h7.55v32h-7.55v-32Z"/></g></g></g></g></svg>