<?xml version="1.0" encoding="utf-8"?>
<!-- Generator: Adobe Illustrator 28.1.0, SVG Export Plug-In . SVG Version: 6.00 Build 0)  -->
<svg version="1.1" id="Layer_1" xmlns:svgjs="http://svgjs.com/svgjs"
	 xmlns="http://www.w3.org/2000/svg" xmlns:xlink="http://www.w3.org/1999/xlink" x="0px" y="0px" viewBox="0 0 154.4 154"
	 style="enable-background:new 0 0 154.4 154;" xml:space="preserve">
<style type="text/css">
	.st0{fill:#EB6336;}
</style>
<path id="SvgjsPath1000" class="st0" d="M154.2,100.2c0,21.3-17.2,38.5-38.5,38.5h-77c-21.3,0-38.5-17.2-38.5-38.5
	s17.2-38.5,38.5-38.5c0.2,0,0.3,0,0.5,0c0.1,0,0.2,0,0.3,0c-4.4-20.8,8.9-41.2,29.7-45.6s41.2,8.9,45.6,29.7
	c1.1,5.3,1.1,10.7,0,15.9c0.1,0,0.2,0,0.3,0c0.2,0,0.3,0,0.5,0C137,61.7,154.2,79,154.2,100.2C154.2,100.2,154.2,100.2,154.2,100.2z
	"/>
</svg>
