<svg xmlns="http://www.w3.org/2000/svg" width="1104.476" height="886.556" viewBox="0 0 1104.476 886.556">
  <g id="Gruppe_681" data-name="Gruppe 681" transform="translate(-1154 -188)">
    <g id="Brandmark_KC" data-name="Brandmark KC" transform="translate(1154 188)" opacity="0.6">
      <g id="Gruppe_208" data-name="Gruppe 208" transform="translate(0 0)">
        <path id="Pfad_43" data-name="Pfad 43" d="M4.356,612.912c0,152.252,123.447,275.7,275.7,275.7h551.4c152.252,0,275.7-123.447,275.7-275.7s-123.447-275.7-275.7-275.7c-1.179,0-2.325,0-3.508.033-.835,0-1.631.038-2.466.071a277.639,277.639,0,0,0,2.466-101.281C806.855,104.7,693.031,4.39,555.754,4.39c-137.239,0-251.1,100.31-272.191,231.646a277.646,277.646,0,0,0,2.466,101.281c-.835-.033-1.631-.071-2.466-.071-1.179-.033-2.325-.033-3.508-.033C127.8,337.213,4.356,460.66,4.356,612.912Z" transform="translate(-4.356 -2.551)" fill="#eae9e1" opacity="0.51"/>
        <path id="Pfad_44" data-name="Pfad 44" d="M4,612.522c0,152.247,123.452,275.7,275.7,275.7H831.1c152.252,0,275.7-123.452,275.7-275.7s-123.447-275.7-275.7-275.7c-1.183,0-2.329,0-3.508.038-.835,0-1.636.033-2.471.066a277.495,277.495,0,0,0,2.471-101.277C806.5,104.31,692.68,4,555.4,4,418.159,4,304.3,104.31,283.212,235.646a277.327,277.327,0,0,0,2.466,101.277c-.834-.033-1.631-.066-2.466-.066-1.183-.038-2.329-.038-3.513-.038C127.452,336.819,4,460.27,4,612.522Z" transform="translate(-2.326 -4)" fill="#eae9e1"/>
        <line id="Linie_195" data-name="Linie 195" x1="419.173" y1="162.664" transform="translate(268.565 331.713)" fill="none"/>
        <line id="Linie_196" data-name="Linie 196" x1="494.845" y1="192.029" transform="translate(307.823 173.991)" fill="none"/>
        <line id="Linie_197" data-name="Linie 197" x1="302.949" y2="388.778" transform="translate(774.074 493.344)" fill="none"/>
        <line id="Linie_198" data-name="Linie 198" x1="389.584" y2="498.131" transform="translate(583.438 388.426)" fill="none"/>
        <line id="Linie_199" data-name="Linie 199" x1="443.024" y2="558.903" transform="translate(383.111 325.318)" fill="none"/>
        <line id="Linie_200" data-name="Linie 200" x1="428.471" y1="166.272" transform="translate(395.3 49.603)" fill="none"/>
        <line id="Linie_201" data-name="Linie 201" x1="23.452" y2="466.013" transform="translate(113.411 370.976)" fill="none"/>
        <line id="Linie_202" data-name="Linie 202" x1="24.189" y2="470.798" transform="translate(404.965 386.839)" fill="none"/>
        <line id="Linie_203" data-name="Linie 203" x1="12.083" y2="210.54" transform="translate(562.923 449.986)" fill="none"/>
        <line id="Linie_204" data-name="Linie 204" x1="26.936" y2="535.238" transform="translate(259.668 338.887)" fill="none"/>
      </g>
    </g>
    <g id="Brandmark_KC-2" data-name="Brandmark KC" transform="translate(1238.776 256.049)">
      <g id="Gruppe_208-2" data-name="Gruppe 208" transform="translate(0 0)">
        <path id="Pfad_43-2" data-name="Pfad 43" d="M4.356,519.5c0,128.879,104.5,233.376,233.376,233.376H704.483c128.879,0,233.375-104.5,233.375-233.376S833.362,286.12,704.483,286.12c-1,0-1.968,0-2.969.028-.707,0-1.381.032-2.088.06a235.019,235.019,0,0,0,2.088-85.733C683.66,89.3,587.31,4.39,471.107,4.39,354.936,4.39,258.554,89.3,240.7,200.475a235.023,235.023,0,0,0,2.087,85.733c-.707-.028-1.381-.06-2.087-.06-1-.028-1.968-.028-2.969-.028C108.852,286.12,4.356,390.616,4.356,519.5Z" transform="translate(-4.356 -2.833)" fill="#eae9e1" opacity="0.51"/>
        <path id="Pfad_44-2" data-name="Pfad 44" d="M4,519.106C4,647.981,108.5,752.481,237.375,752.481H704.13c128.879,0,233.375-104.5,233.375-233.375S833.009,285.726,704.13,285.726c-1,0-1.972,0-2.97.032-.706,0-1.385.028-2.091.056a234.894,234.894,0,0,0,2.091-85.729C683.308,88.911,586.958,4,470.755,4,354.58,4,258.2,88.911,240.349,200.085a234.753,234.753,0,0,0,2.087,85.729c-.706-.028-1.381-.056-2.087-.056-1-.032-1.972-.032-2.974-.032C108.5,285.726,4,390.226,4,519.106Z" transform="translate(-2.583 -4)" fill="#eae9e1"/>
        <line id="Linie_195-2" data-name="Linie 195" x1="354.824" y1="137.693" transform="translate(227.337 280.79)" fill="none"/>
        <line id="Linie_196-2" data-name="Linie 196" x1="418.879" y1="162.55" transform="translate(260.568 147.281)" fill="none"/>
        <line id="Linie_197-2" data-name="Linie 197" x1="256.442" y2="329.095" transform="translate(655.243 417.609)" fill="none"/>
        <line id="Linie_198-2" data-name="Linie 198" x1="329.778" y2="421.661" transform="translate(493.872 328.797)" fill="none"/>
        <line id="Linie_199-2" data-name="Linie 199" x1="375.014" y2="473.103" transform="translate(324.298 275.377)" fill="none"/>
        <line id="Linie_200-2" data-name="Linie 200" x1="362.695" y1="140.747" transform="translate(334.615 41.989)" fill="none"/>
        <line id="Linie_201-2" data-name="Linie 201" x1="19.852" y2="394.474" transform="translate(96.001 314.026)" fill="none"/>
        <line id="Linie_202-2" data-name="Linie 202" x1="20.475" y2="398.524" transform="translate(342.797 327.453)" fill="none"/>
        <line id="Linie_203-2" data-name="Linie 203" x1="10.228" y2="178.219" transform="translate(476.506 380.907)" fill="none"/>
        <line id="Linie_204-2" data-name="Linie 204" x1="22.801" y2="453.072" transform="translate(219.805 286.863)" fill="none"/>
      </g>
    </g>
  </g>
</svg>
