<svg xmlns="http://www.w3.org/2000/svg" width="1104.476" height="886.557" viewBox="0 0 1104.476 886.557">
  <g id="Brandmark_KC" data-name="Brandmark KC" transform="translate(0 -11)" opacity="0.6">
    <g id="Gruppe_208" data-name="Gruppe 208" transform="translate(0 11)">
      <path id="Pfad_43" data-name="Pfad 43" d="M4.356,612.912c0,152.252,123.447,275.7,275.7,275.7h551.4c152.252,0,275.7-123.447,275.7-275.7s-123.447-275.7-275.7-275.7c-1.179,0-2.325,0-3.508.033-.835,0-1.632.038-2.466.071a277.638,277.638,0,0,0,2.466-101.281C806.855,104.7,693.031,4.39,555.755,4.39c-137.239,0-251.1,100.31-272.191,231.646a277.646,277.646,0,0,0,2.466,101.281c-.835-.033-1.632-.071-2.466-.071-1.179-.033-2.325-.033-3.508-.033C127.8,337.213,4.356,460.66,4.356,612.912Z" transform="translate(-4.356 -2.551)" fill="#ebb544" opacity="0.51"/>
      <path id="Pfad_44" data-name="Pfad 44" d="M4,612.523c0,152.247,123.452,275.7,275.7,275.7H831.1c152.252,0,275.7-123.452,275.7-275.7s-123.447-275.7-275.7-275.7c-1.183,0-2.329,0-3.508.038-.835,0-1.636.033-2.471.066a277.5,277.5,0,0,0,2.471-101.277C806.5,104.31,692.68,4,555.4,4,418.159,4,304.3,104.31,283.212,235.646a277.329,277.329,0,0,0,2.466,101.277c-.834-.033-1.632-.066-2.466-.066-1.183-.038-2.329-.038-3.513-.038C127.452,336.819,4,460.27,4,612.523Z" transform="translate(-2.326 -4)" fill="#ebb544"/>
      <line id="Linie_195" data-name="Linie 195" x1="419.173" y1="162.664" transform="translate(268.565 331.713)" fill="none"/>
      <line id="Linie_196" data-name="Linie 196" x1="494.845" y1="192.029" transform="translate(307.823 173.991)" fill="none"/>
      <line id="Linie_197" data-name="Linie 197" x1="302.949" y2="388.778" transform="translate(774.074 493.344)" fill="none"/>
      <line id="Linie_198" data-name="Linie 198" x1="389.584" y2="498.131" transform="translate(583.438 388.426)" fill="none"/>
      <line id="Linie_199" data-name="Linie 199" x1="443.024" y2="558.903" transform="translate(383.111 325.318)" fill="none"/>
      <line id="Linie_200" data-name="Linie 200" x1="428.471" y1="166.272" transform="translate(395.3 49.604)" fill="none"/>
      <line id="Linie_201" data-name="Linie 201" x1="23.452" y2="466.013" transform="translate(113.411 370.976)" fill="none"/>
      <line id="Linie_202" data-name="Linie 202" x1="24.189" y2="470.798" transform="translate(404.965 386.839)" fill="none"/>
      <line id="Linie_203" data-name="Linie 203" x1="12.083" y2="210.54" transform="translate(562.923 449.986)" fill="none"/>
      <line id="Linie_204" data-name="Linie 204" x1="26.936" y2="535.239" transform="translate(259.668 338.887)" fill="none"/>
    </g>
  </g>
</svg>
