<svg xmlns="http://www.w3.org/2000/svg" width="636.525" height="529.87" viewBox="0 0 636.525 529.87">
  <g id="Gruppe_744" data-name="Gruppe 744" transform="translate(153.135 -134.131)">
    <g id="img_cloud_brown" data-name="img cloud brown" transform="translate(169.609 134.131)" opacity="0.6">
      <g id="Gruppe_208" data-name="Gruppe 208" transform="translate(0 0)">
        <path id="Pfad_43" data-name="Pfad 43" d="M317.661,177.271A78.331,78.331,0,0,1,239.334,255.6H82.682a78.326,78.326,0,0,1,0-156.652c.335,0,.66,0,1,.009.237,0,.463.011.7.02a78.326,78.326,0,1,1,153.258,0c.237-.009.464-.02.7-.02.335-.009.66-.009,1-.009A78.331,78.331,0,0,1,317.661,177.271Z" transform="translate(-3.879 -3.868)" fill="#eae9e1" opacity="0.51"/>
        <path id="Pfad_44" data-name="Pfad 44" d="M317.306,176.881a78.332,78.332,0,0,1-78.326,78.326H82.326a78.327,78.327,0,0,1,0-156.654c.336,0,.662,0,1,.011.237,0,.465.009.7.019a78.327,78.327,0,1,1,153.257,0c.237-.009.463-.019.7-.019.336-.011.662-.011,1-.011A78.333,78.333,0,0,1,317.306,176.881Z" transform="translate(-4 -4)" fill="#eae9e1"/>
        <line id="Linie_195" data-name="Linie 195" y1="46.213" x2="119.087" transform="translate(118.395 94.24)" fill="none"/>
        <line id="Linie_196" data-name="Linie 196" y1="54.555" x2="140.585" transform="translate(85.743 49.431)" fill="none"/>
        <line id="Linie_197" data-name="Linie 197" x2="86.068" y2="110.452" transform="translate(7.799 140.159)" fill="none"/>
        <line id="Linie_198" data-name="Linie 198" x2="110.681" y2="141.519" transform="translate(37.346 110.352)" fill="none"/>
        <line id="Linie_199" data-name="Linie 199" x2="125.863" y2="158.784" transform="translate(79.077 92.423)" fill="none"/>
        <line id="Linie_200" data-name="Linie 200" y1="47.238" x2="121.729" transform="translate(79.748 14.092)" fill="none"/>
        <line id="Linie_201" data-name="Linie 201" x2="6.663" y2="132.394" transform="translate(274.899 105.394)" fill="none"/>
        <line id="Linie_202" data-name="Linie 202" x2="6.872" y2="133.754" transform="translate(191.859 109.901)" fill="none"/>
        <line id="Linie_203" data-name="Linie 203" x2="3.433" y2="59.814" transform="translate(150.423 127.841)" fill="none"/>
        <line id="Linie_204" data-name="Linie 204" x2="7.652" y2="152.061" transform="translate(232.357 96.278)" fill="none"/>
      </g>
    </g>
    <g id="Brandmark_KC" data-name="Brandmark KC" transform="translate(-153.135 369.236)" opacity="0.6">
      <g id="Gruppe_208-2" data-name="Gruppe 208" transform="translate(0 0)">
        <path id="Pfad_43-2" data-name="Pfad 43" d="M310.161,173.133a76.456,76.456,0,0,1-76.451,76.451H80.807a76.451,76.451,0,0,1,0-152.9c.327,0,.645,0,.973.009.231,0,.452.01.684.02a76.451,76.451,0,1,1,149.589,0c.231-.009.452-.02.684-.02.327-.009.645-.009.973-.009A76.456,76.456,0,0,1,310.161,173.133Z" transform="translate(-3.891 -3.88)" fill="#ebb544" opacity="0.51"/>
        <path id="Pfad_44-2" data-name="Pfad 44" d="M309.806,172.743a76.457,76.457,0,0,1-76.451,76.451H80.451a76.452,76.452,0,0,1,0-152.9c.328,0,.646,0,.973.01.231,0,.454.009.685.018a76.452,76.452,0,1,1,149.588,0c.231-.009.452-.018.684-.018.328-.01.646-.01.974-.01A76.458,76.458,0,0,1,309.806,172.743Z" transform="translate(-4 -4)" fill="#ebb544"/>
        <line id="Linie_195-2" data-name="Linie 195" y1="45.107" x2="116.236" transform="translate(115.561 91.984)" fill="none"/>
        <line id="Linie_196-2" data-name="Linie 196" y1="53.25" x2="137.22" transform="translate(83.691 48.248)" fill="none"/>
        <line id="Linie_197-2" data-name="Linie 197" x2="84.008" y2="107.808" transform="translate(7.613 136.804)" fill="none"/>
        <line id="Linie_198-2" data-name="Linie 198" x2="108.031" y2="138.131" transform="translate(36.452 107.71)" fill="none"/>
        <line id="Linie_199-2" data-name="Linie 199" x2="122.85" y2="154.983" transform="translate(77.184 90.21)" fill="none"/>
        <line id="Linie_200-2" data-name="Linie 200" y1="46.107" x2="118.815" transform="translate(77.839 13.755)" fill="none"/>
        <line id="Linie_201-2" data-name="Linie 201" x2="6.503" y2="129.225" transform="translate(268.318 102.872)" fill="none"/>
        <line id="Linie_202-2" data-name="Linie 202" x2="6.707" y2="130.552" transform="translate(187.267 107.27)" fill="none"/>
        <line id="Linie_203-2" data-name="Linie 203" x2="3.35" y2="58.383" transform="translate(146.822 124.781)" fill="none"/>
        <line id="Linie_204-2" data-name="Linie 204" x2="7.469" y2="148.421" transform="translate(226.795 93.973)" fill="none"/>
      </g>
    </g>
    <g id="Brandmark_KC-2" data-name="Brandmark KC" transform="translate(46 498.17)" opacity="0.6">
      <g id="Gruppe_208-3" data-name="Gruppe 208" transform="translate(0 0)">
        <path id="Pfad_43-3" data-name="Pfad 43" d="M210.635,118.215a51.573,51.573,0,0,1-51.57,51.57H55.926a51.57,51.57,0,0,1,0-103.14c.22,0,.435,0,.656.006.156,0,.305.007.461.013a51.57,51.57,0,1,1,100.9,0c.156-.006.305-.013.461-.013.22-.006.435-.006.656-.006A51.573,51.573,0,0,1,210.635,118.215Z" transform="translate(-4.042 -4.046)" fill="#eae9e1" opacity="0.51"/>
        <path id="Pfad_44-3" data-name="Pfad 44" d="M210.28,117.825a51.574,51.574,0,0,1-51.57,51.57H55.57a51.57,51.57,0,0,1,0-103.141c.221,0,.436,0,.656.007.156,0,.306.006.462.012a51.57,51.57,0,1,1,100.9,0c.156-.006.305-.012.461-.012.221-.007.436-.007.657-.007A51.574,51.574,0,0,1,210.28,117.825Z" transform="translate(-4 -4)" fill="#eae9e1"/>
        <line id="Linie_195-3" data-name="Linie 195" y1="30.426" x2="78.407" transform="translate(77.951 62.047)" fill="none"/>
        <line id="Linie_196-3" data-name="Linie 196" y1="35.919" x2="92.561" transform="translate(56.453 32.545)" fill="none"/>
        <line id="Linie_197-3" data-name="Linie 197" x2="56.667" y2="72.721" transform="translate(5.135 92.281)" fill="none"/>
        <line id="Linie_198-3" data-name="Linie 198" x2="72.872" y2="93.176" transform="translate(24.588 72.655)" fill="none"/>
        <line id="Linie_199-3" data-name="Linie 199" x2="82.868" y2="104.543" transform="translate(52.064 60.851)" fill="none"/>
        <line id="Linie_200-3" data-name="Linie 200" y1="31.101" x2="80.146" transform="translate(52.506 9.278)" fill="none"/>
        <line id="Linie_201-3" data-name="Linie 201" x2="4.387" y2="87.168" transform="translate(180.993 69.392)" fill="none"/>
        <line id="Linie_202-3" data-name="Linie 202" x2="4.525" y2="88.063" transform="translate(126.32 72.359)" fill="none"/>
        <line id="Linie_203-3" data-name="Linie 203" x2="2.26" y2="39.382" transform="translate(99.038 84.17)" fill="none"/>
        <line id="Linie_204-3" data-name="Linie 204" x2="5.038" y2="100.117" transform="translate(152.984 63.389)" fill="none"/>
      </g>
    </g>
  </g>
</svg>
