<?xml version="1.0" encoding="UTF-8"?>
<svg id="Ebene_1" data-name="Ebene 1" xmlns="http://www.w3.org/2000/svg" viewBox="0 0 2389.19 949.4">
  <defs>
    <style>
      .cls-1, .cls-2 {
        fill: none;
      }

      .cls-2 {
        opacity: .6;
      }

      .cls-3, .cls-4 {
        fill: #ebb544;
      }

      .cls-5, .cls-6 {
        fill: #eae9e1;
      }

      .cls-6, .cls-4 {
        isolation: isolate;
        opacity: .51;
      }
    </style>
  </defs>
  <g id="landingpage">
    <g id="Homepage_images" data-name="Homepage images">
      <g id="Grafik_Cloud_Yellow" data-name="Grafik Cloud Yellow" class="cls-2">
        <g id="Gruppe_208" data-name="Gruppe 208">
          <path id="Pfad_43" data-name="Pfad 43" class="cls-4" d="m869.05,480.26c0,119.8-97.13,216.93-216.93,216.93H218.25c-119.8,0-216.93-97.13-216.93-216.93s97.13-216.93,216.93-216.93c.93,0,1.83,0,2.76.03.66,0,1.28.03,1.94.06-5.53-26.22-6.19-53.23-1.94-79.69C237.61,80.38,327.17,1.45,435.19,1.45s197.58,78.93,214.17,182.27c4.25,26.46,3.59,53.47-1.94,79.69.66-.03,1.28-.06,1.94-.06.93-.03,1.83-.03,2.76-.03,119.8,0,216.93,97.13,216.93,216.93Z"/>
          <path id="Pfad_44" data-name="Pfad 44" class="cls-3" d="m867.73,478.81c0,119.79-97.14,216.93-216.93,216.93H216.93C97.13,695.74,0,598.61,0,478.81s97.13-216.93,216.93-216.93c.93,0,1.83,0,2.76.03.66,0,1.29.03,1.94.05-5.53-26.22-6.19-53.23-1.94-79.69C236.29,78.93,325.85,0,433.87,0s197.58,78.93,214.17,182.27c4.25,26.46,3.59,53.47-1.94,79.69.66-.03,1.28-.05,1.94-.05.93-.03,1.83-.03,2.76-.03,119.8,0,216.93,97.14,216.93,216.93Z"/>
          <line id="Linie_195" data-name="Linie 195" class="cls-1" x1="327.91" y1="389" x2="657.73" y2="261.01"/>
          <line id="Linie_196" data-name="Linie 196" class="cls-1" x1="237.48" y1="288" x2="626.84" y2="136.9"/>
          <line id="Linie_197" data-name="Linie 197" class="cls-1" x1="21.6" y1="388.18" x2="259.98" y2="694.09"/>
          <line id="Linie_198" data-name="Linie 198" class="cls-1" x1="103.43" y1="305.63" x2="409.97" y2="697.58"/>
          <line id="Linie_199" data-name="Linie 199" class="cls-1" x1="219.01" y1="255.97" x2="567.6" y2="695.74"/>
          <line id="Linie_200" data-name="Linie 200" class="cls-1" x1="220.87" y1="169.86" x2="558.01" y2="39.03"/>
          <line id="Linie_201" data-name="Linie 201" class="cls-1" x1="761.36" y1="291.9" x2="779.81" y2="658.58"/>
          <line id="Linie_202" data-name="Linie 202" class="cls-1" x1="531.37" y1="304.38" x2="550.41" y2="674.83"/>
          <line id="Linie_203" data-name="Linie 203" class="cls-1" x1="416.61" y1="354.07" x2="426.12" y2="519.73"/>
          <line id="Linie_204" data-name="Linie 204" class="cls-1" x1="643.54" y1="266.65" x2="664.73" y2="687.8"/>
        </g>
      </g>
      <g id="Grafik_Cloud_brown" data-name="Grafik Cloud brown" class="cls-2">
        <g id="Gruppe_208-2" data-name="Gruppe 208-2">
          <path id="Pfad_43-2" data-name="Pfad 43-2" class="cls-6" d="m2389.19,434.9c0,94.27-76.43,170.7-170.7,170.7h-341.39c-94.27-.68-170.14-77.66-169.46-171.93.68-93.31,76.15-168.78,169.46-169.46.73,0,1.44,0,2.17.02.52,0,1.01.02,1.53.04-19.53-92.23,39.4-182.83,131.63-202.36s182.83,39.4,202.36,131.63c4.94,23.32,4.94,47.41,0,70.73.52-.02,1.01-.04,1.53-.04.73-.02,1.44-.02,2.17-.02,94.27,0,170.69,76.42,170.7,170.69Z"/>
          <path id="Pfad_44-2" data-name="Pfad 44-2" class="cls-5" d="m2388.15,433.76c0,94.27-76.43,170.7-170.7,170.7h-341.38c-94.27-.6-170.21-77.52-169.6-171.79.6-93.42,76.18-169.01,169.6-169.6.73,0,1.44,0,2.17.02.52,0,1.01.02,1.53.04-19.54-92.23,39.39-182.83,131.62-202.37s182.83,39.39,202.37,131.62c4.94,23.32,4.94,47.42,0,70.74.52-.02,1.01-.04,1.53-.04.73-.02,1.44-.02,2.17-.02,94.27.01,170.68,76.43,170.69,170.69Z"/>
          <line id="Linie_195-2" data-name="Linie 195-2" class="cls-1" x1="1963.38" y1="363.09" x2="2222.91" y2="262.38"/>
          <line id="Linie_196-2" data-name="Linie 196-2" class="cls-1" x1="1892.23" y1="283.62" x2="2198.6" y2="164.72"/>
          <line id="Linie_197-2" data-name="Linie 197-2" class="cls-1" x1="1722.36" y1="362.45" x2="1909.93" y2="603.15"/>
          <line id="Linie_198-2" data-name="Linie 198-2" class="cls-1" x1="1786.75" y1="297.49" x2="2027.96" y2="605.9"/>
          <line id="Linie_199-2" data-name="Linie 199-2" class="cls-1" x1="1877.7" y1="258.42" x2="2151.99" y2="604.45"/>
          <line id="Linie_200-2" data-name="Linie 200-2" class="cls-1" x1="1879.16" y1="190.66" x2="2144.44" y2="87.71"/>
          <line id="Linie_201-2" data-name="Linie 201-2" class="cls-1" x1="2304.45" y1="286.68" x2="2318.97" y2="575.21"/>
          <line id="Linie_202-2" data-name="Linie 202-2" class="cls-1" x1="2123.48" y1="296.51" x2="2138.46" y2="587.99"/>
          <line id="Linie_203-2" data-name="Linie 203-2" class="cls-1" x1="2033.18" y1="335.6" x2="2040.66" y2="465.95"/>
          <line id="Linie_204-2" data-name="Linie 204-2" class="cls-1" x1="2211.74" y1="266.82" x2="2228.42" y2="598.2"/>
        </g>
      </g>
      <g id="Grafik_Cloud_brown-2" data-name="Grafik Cloud brown-2" class="cls-2">
        <g id="Gruppe_208-3" data-name="Gruppe 208-3">
          <path id="Pfad_43-3" data-name="Pfad 43-3" class="cls-6" d="m1183.03,762.22c0,103.18-83.66,186.84-186.84,186.84h-373.68c-103.18,0-186.84-83.66-186.84-186.84s83.66-186.84,186.84-186.84c.8,0,1.57,0,2.38.02.57,0,1.11.03,1.67.05-4.76-22.58-5.33-45.85-1.67-68.64,14.29-89.01,91.43-156.99,184.46-156.99s170.17,67.98,184.46,156.99c3.66,22.79,3.09,46.05-1.67,68.64.57-.02,1.11-.05,1.67-.05.8-.02,1.58-.02,2.38-.02,103.18,0,186.84,83.66,186.84,186.84Z"/>
          <path id="Pfad_44-3" data-name="Pfad 44-3" class="cls-5" d="m1181.9,760.98c0,103.18-83.66,186.84-186.84,186.84h-373.69c-103.18,0-186.84-83.67-186.84-186.84s83.66-186.85,186.84-186.85c.8,0,1.58,0,2.38.03.57,0,1.11.02,1.67.04-4.76-22.58-5.33-45.85-1.67-68.63,14.29-89.01,91.43-156.99,184.46-156.99s170.17,67.98,184.46,156.99c3.66,22.79,3.1,46.05-1.67,68.64.57-.02,1.11-.04,1.67-.04.8-.03,1.58-.03,2.38-.03,103.18,0,186.84,83.66,186.84,186.85Z"/>
          <line id="Linie_195-3" data-name="Linie 195-3" class="cls-1" x1="716.95" y1="683.62" x2="1001.02" y2="573.38"/>
          <line id="Linie_196-3" data-name="Linie 196-3" class="cls-1" x1="639.06" y1="596.63" x2="974.42" y2="466.49"/>
          <line id="Linie_197-3" data-name="Linie 197-3" class="cls-1" x1="453.13" y1="682.92" x2="658.44" y2="946.39"/>
          <line id="Linie_198-3" data-name="Linie 198-3" class="cls-1" x1="523.61" y1="611.82" x2="787.63" y2="949.4"/>
          <line id="Linie_199-3" data-name="Linie 199-3" class="cls-1" x1="623.16" y1="569.05" x2="923.4" y2="947.82"/>
          <line id="Linie_200-3" data-name="Linie 200-3" class="cls-1" x1="624.76" y1="494.88" x2="915.14" y2="382.19"/>
          <line id="Linie_201-3" data-name="Linie 201-3" class="cls-1" x1="1090.28" y1="599.99" x2="1106.17" y2="915.81"/>
          <line id="Linie_202-3" data-name="Linie 202-3" class="cls-1" x1="892.19" y1="610.74" x2="908.59" y2="929.8"/>
          <line id="Linie_203-3" data-name="Linie 203-3" class="cls-1" x1="793.35" y1="653.53" x2="801.54" y2="796.22"/>
          <line id="Linie_204-3" data-name="Linie 204-3" class="cls-1" x1="988.8" y1="578.24" x2="1007.05" y2="940.97"/>
        </g>
      </g>
    </g>
  </g>
</svg>