<svg id="Gruppe_745" data-name="Gruppe 745" xmlns="http://www.w3.org/2000/svg" width="390" height="844" viewBox="0 0 390 844">
  <rect id="Rechteck_280" data-name="Rechteck 280" width="390" height="844" fill="#fff"/>
  <g id="grafiken" transform="translate(0.5 69.33)">
    <g id="Brandmark_KC" data-name="Brandmark KC" transform="translate(45 543.67)" opacity="0.6">
      <g id="Gruppe_208" data-name="Gruppe 208" transform="translate(0 0)">
        <path id="Pfad_43" data-name="Pfad 43" d="M4.356,128.166a56.081,56.081,0,0,0,56.078,56.078H172.591a56.078,56.078,0,0,0,0-112.156c-.24,0-.473,0-.714.007-.17,0-.332.008-.5.014a56.078,56.078,0,1,0-109.726,0c-.17-.007-.332-.014-.5-.014-.24-.007-.473-.007-.714-.007A56.081,56.081,0,0,0,4.356,128.166Z" transform="translate(-4.356 -4.016)" fill="#ebb544" opacity="0.51"/>
        <path id="Pfad_44" data-name="Pfad 44" d="M4,127.776a56.083,56.083,0,0,0,56.078,56.078H172.236a56.079,56.079,0,0,0,0-112.157c-.241,0-.474,0-.714.008-.17,0-.333.007-.5.013a56.079,56.079,0,1,0-109.725,0c-.17-.007-.332-.013-.5-.013-.241-.008-.474-.008-.714-.008A56.083,56.083,0,0,0,4,127.776Z" transform="translate(-3.66 -4)" fill="#ebb544"/>
        <line id="Linie_195" data-name="Linie 195" x1="85.261" y1="33.086" transform="translate(54.627 67.472)" fill="none"/>
        <line id="Linie_196" data-name="Linie 196" x1="100.653" y1="39.059" transform="translate(62.612 35.39)" fill="none"/>
        <line id="Linie_197" data-name="Linie 197" x1="61.621" y2="79.079" transform="translate(157.449 100.348)" fill="none"/>
        <line id="Linie_198" data-name="Linie 198" x1="79.243" y2="101.322" transform="translate(118.673 79.007)" fill="none"/>
        <line id="Linie_199" data-name="Linie 199" x1="90.113" y2="113.683" transform="translate(77.926 66.171)" fill="none"/>
        <line id="Linie_200" data-name="Linie 200" x1="87.153" y1="33.82" transform="translate(80.405 10.09)" fill="none"/>
        <line id="Linie_201" data-name="Linie 201" x1="4.77" y2="94.789" transform="translate(23.068 75.458)" fill="none"/>
        <line id="Linie_202" data-name="Linie 202" x1="4.92" y2="95.762" transform="translate(82.371 78.684)" fill="none"/>
        <line id="Linie_203" data-name="Linie 203" x1="2.458" y2="42.825" transform="translate(114.5 91.529)" fill="none"/>
        <line id="Linie_204" data-name="Linie 204" x1="5.479" y2="108.869" transform="translate(52.817 68.931)" fill="none"/>
      </g>
    </g>
    <g id="Brandmark_KC-2" data-name="Brandmark KC" transform="translate(196.241 605.394)" opacity="0.6">
      <g id="Gruppe_208-2" data-name="Gruppe 208" transform="translate(0 0)">
        <path id="Pfad_43-2" data-name="Pfad 43" d="M4.356,85.8A36.886,36.886,0,0,0,41.24,122.683h73.767a36.884,36.884,0,0,0,0-73.767c-.158,0-.311,0-.469,0-.112,0-.218.005-.33.009a36.884,36.884,0,1,0-72.169,0c-.112,0-.218-.009-.33-.009-.158,0-.311,0-.469,0A36.886,36.886,0,0,0,4.356,85.8Z" transform="translate(-4.356 -4.144)" fill="#eae9e1" opacity="0.51"/>
        <path id="Pfad_44-2" data-name="Pfad 44" d="M4,85.41a36.887,36.887,0,0,0,36.884,36.884h73.768a36.884,36.884,0,0,0,0-73.768c-.158,0-.312,0-.469.005-.112,0-.219,0-.331.009a36.884,36.884,0,1,0-72.168,0c-.112,0-.218-.009-.33-.009-.158-.005-.312-.005-.47-.005A36.887,36.887,0,0,0,4,85.41Z" transform="translate(-3.776 -4)" fill="#eae9e1"/>
        <line id="Linie_195-2" data-name="Linie 195" x1="56.078" y1="21.762" transform="translate(35.929 44.377)" fill="none"/>
        <line id="Linie_196-2" data-name="Linie 196" x1="66.202" y1="25.69" transform="translate(41.181 23.277)" fill="none"/>
        <line id="Linie_197-2" data-name="Linie 197" x1="40.529" y2="52.012" transform="translate(103.558 66.001)" fill="none"/>
        <line id="Linie_198-2" data-name="Linie 198" x1="52.12" y2="66.641" transform="translate(78.054 51.965)" fill="none"/>
        <line id="Linie_199-2" data-name="Linie 199" x1="59.269" y2="74.771" transform="translate(51.253 43.522)" fill="none"/>
        <line id="Linie_200-2" data-name="Linie 200" x1="57.322" y1="22.244" transform="translate(52.884 6.636)" fill="none"/>
        <line id="Linie_201-2" data-name="Linie 201" x1="3.138" y2="62.344" transform="translate(15.172 49.63)" fill="none"/>
        <line id="Linie_202-2" data-name="Linie 202" x1="3.236" y2="62.984" transform="translate(54.177 51.752)" fill="none"/>
        <line id="Linie_203-2" data-name="Linie 203" x1="1.616" y2="28.167" transform="translate(75.309 60.2)" fill="none"/>
        <line id="Linie_204-2" data-name="Linie 204" x1="3.604" y2="71.605" transform="translate(34.739 45.337)" fill="none"/>
      </g>
    </g>
  </g>
</svg>
