<svg xmlns="http://www.w3.org/2000/svg" width="2202.771" height="1086.404" viewBox="0 0 2202.771 1086.404">
  <g id="Gruppe_743" data-name="Gruppe 743" transform="translate(516.639 0)">
    <path id="cloud-brown-60" d="M662.263,365.434A165.576,165.576,0,0,1,496.7,531H165.566a165.566,165.566,0,1,1,0-331.132c.709,0,1.4,0,2.107.021.5,0,.981.021,1.481.042a165.566,165.566,0,1,1,323.954,0c.5-.021.981-.042,1.481-.042.709-.021,1.4-.021,2.107-.021A165.576,165.576,0,0,1,662.263,365.434Z" transform="translate(1023.869)" fill="#eae9e1" opacity="0.6"/>
    <path id="cloud-brown-60-2" data-name="cloud-brown-60" d="M1113.006,614.152c0,153.661-124.591,278.252-278.251,278.252h-556.5C124.591,892.4,0,767.813,0,614.152S124.591,335.9,278.252,335.9c1.192,0,2.349,0,3.542.035.842,0,1.648.035,2.49.07a280.114,280.114,0,0,1-2.49-102.218C303.078,101.237,417.956,0,556.5,0c138.512,0,253.425,101.237,274.71,233.787a280.116,280.116,0,0,1-2.49,102.218c.842-.035,1.648-.07,2.49-.07,1.192-.035,2.35-.035,3.542-.035C988.415,335.9,1113.006,460.491,1113.006,614.152Z" transform="translate(-516.639 194)" fill="#eae9e1" opacity="0.6"/>
  </g>
</svg>
